<mxfile host="app.diagrams.net" agent="Mozilla/5.0 (Windows NT 10.0; Win64; x64; rv:130.0) Gecko/20100101 Firefox/130.0" version="24.7.16">
  <diagram name="Page-1" id="oCJf1C8enluBpn94Nb_i">
    <mxGraphModel dx="1218" dy="821" grid="1" gridSize="10" guides="1" tooltips="1" connect="1" arrows="1" fold="1" page="1" pageScale="1" pageWidth="850" pageHeight="1100" math="0" shadow="0">
      <root>
        <mxCell id="0" />
        <mxCell id="1" parent="0" />
        <mxCell id="f0qIIBavxTyPthZcbCsk-2" value="" style="rounded=0;whiteSpace=wrap;html=1;" vertex="1" parent="1">
          <mxGeometry x="70" y="20" width="760" height="720" as="geometry" />
        </mxCell>
        <mxCell id="f0qIIBavxTyPthZcbCsk-1" value="&lt;div&gt;User&lt;/div&gt;&lt;div&gt;&lt;br&gt;&lt;/div&gt;" style="shape=umlActor;verticalLabelPosition=bottom;verticalAlign=top;html=1;outlineConnect=0;" vertex="1" parent="1">
          <mxGeometry x="10" y="370" width="30" height="60" as="geometry" />
        </mxCell>
        <mxCell id="f0qIIBavxTyPthZcbCsk-11" style="rounded=0;orthogonalLoop=1;jettySize=auto;html=1;exitX=0.5;exitY=0;exitDx=0;exitDy=0;entryX=0;entryY=0.5;entryDx=0;entryDy=0;strokeColor=default;flowAnimation=0;curved=0;dashed=1;" edge="1" parent="1" source="f0qIIBavxTyPthZcbCsk-3" target="f0qIIBavxTyPthZcbCsk-4">
          <mxGeometry relative="1" as="geometry" />
        </mxCell>
        <mxCell id="f0qIIBavxTyPthZcbCsk-12" style="rounded=0;orthogonalLoop=1;jettySize=auto;html=1;exitX=0.5;exitY=1;exitDx=0;exitDy=0;entryX=0;entryY=0.5;entryDx=0;entryDy=0;dashed=1;" edge="1" parent="1" source="f0qIIBavxTyPthZcbCsk-3" target="f0qIIBavxTyPthZcbCsk-5">
          <mxGeometry relative="1" as="geometry" />
        </mxCell>
        <mxCell id="f0qIIBavxTyPthZcbCsk-13" style="rounded=0;orthogonalLoop=1;jettySize=auto;html=1;exitX=1;exitY=0.5;exitDx=0;exitDy=0;entryX=0;entryY=0.5;entryDx=0;entryDy=0;dashed=1;" edge="1" parent="1" source="f0qIIBavxTyPthZcbCsk-3" target="f0qIIBavxTyPthZcbCsk-6">
          <mxGeometry relative="1" as="geometry" />
        </mxCell>
        <mxCell id="f0qIIBavxTyPthZcbCsk-3" value="&lt;div&gt;Food Search&lt;/div&gt;" style="ellipse;whiteSpace=wrap;html=1;" vertex="1" parent="1">
          <mxGeometry x="90" y="360" width="120" height="80" as="geometry" />
        </mxCell>
        <mxCell id="f0qIIBavxTyPthZcbCsk-14" style="rounded=0;orthogonalLoop=1;jettySize=auto;html=1;exitX=1;exitY=0.5;exitDx=0;exitDy=0;entryX=0.5;entryY=0;entryDx=0;entryDy=0;dashed=1;" edge="1" parent="1" source="f0qIIBavxTyPthZcbCsk-4" target="f0qIIBavxTyPthZcbCsk-6">
          <mxGeometry relative="1" as="geometry" />
        </mxCell>
        <mxCell id="f0qIIBavxTyPthZcbCsk-4" value="Nutritional Range Filter" style="ellipse;whiteSpace=wrap;html=1;" vertex="1" parent="1">
          <mxGeometry x="210" y="250" width="120" height="80" as="geometry" />
        </mxCell>
        <mxCell id="f0qIIBavxTyPthZcbCsk-15" style="rounded=0;orthogonalLoop=1;jettySize=auto;html=1;exitX=1;exitY=0.5;exitDx=0;exitDy=0;entryX=0.5;entryY=1;entryDx=0;entryDy=0;dashed=1;" edge="1" parent="1" source="f0qIIBavxTyPthZcbCsk-5" target="f0qIIBavxTyPthZcbCsk-6">
          <mxGeometry relative="1" as="geometry" />
        </mxCell>
        <mxCell id="f0qIIBavxTyPthZcbCsk-5" value="&lt;div&gt;Nutritional Level&lt;/div&gt;&lt;div&gt;Filter&lt;/div&gt;" style="ellipse;whiteSpace=wrap;html=1;" vertex="1" parent="1">
          <mxGeometry x="210" y="470" width="120" height="80" as="geometry" />
        </mxCell>
        <mxCell id="f0qIIBavxTyPthZcbCsk-16" style="rounded=0;orthogonalLoop=1;jettySize=auto;html=1;exitX=1;exitY=0.5;exitDx=0;exitDy=0;entryX=0;entryY=0.5;entryDx=0;entryDy=0;dashed=1;" edge="1" parent="1" source="f0qIIBavxTyPthZcbCsk-6" target="f0qIIBavxTyPthZcbCsk-8">
          <mxGeometry relative="1" as="geometry" />
        </mxCell>
        <mxCell id="f0qIIBavxTyPthZcbCsk-17" style="rounded=0;orthogonalLoop=1;jettySize=auto;html=1;exitX=1;exitY=0.5;exitDx=0;exitDy=0;entryX=0;entryY=0.5;entryDx=0;entryDy=0;dashed=1;" edge="1" parent="1" source="f0qIIBavxTyPthZcbCsk-6" target="f0qIIBavxTyPthZcbCsk-7">
          <mxGeometry relative="1" as="geometry" />
        </mxCell>
        <mxCell id="f0qIIBavxTyPthZcbCsk-6" value="&lt;div&gt;Food Item&lt;/div&gt;" style="ellipse;whiteSpace=wrap;html=1;" vertex="1" parent="1">
          <mxGeometry x="330" y="360" width="120" height="80" as="geometry" />
        </mxCell>
        <mxCell id="f0qIIBavxTyPthZcbCsk-19" style="rounded=0;orthogonalLoop=1;jettySize=auto;html=1;exitX=1;exitY=0.5;exitDx=0;exitDy=0;entryX=0.5;entryY=0;entryDx=0;entryDy=0;dashed=1;" edge="1" parent="1" source="f0qIIBavxTyPthZcbCsk-7" target="f0qIIBavxTyPthZcbCsk-9">
          <mxGeometry relative="1" as="geometry" />
        </mxCell>
        <mxCell id="f0qIIBavxTyPthZcbCsk-7" value="Nutritional Breakdown" style="ellipse;whiteSpace=wrap;html=1;" vertex="1" parent="1">
          <mxGeometry x="510" y="250" width="120" height="80" as="geometry" />
        </mxCell>
        <mxCell id="f0qIIBavxTyPthZcbCsk-18" style="rounded=0;orthogonalLoop=1;jettySize=auto;html=1;exitX=1;exitY=0.5;exitDx=0;exitDy=0;entryX=0.5;entryY=1;entryDx=0;entryDy=0;dashed=1;" edge="1" parent="1" source="f0qIIBavxTyPthZcbCsk-8" target="f0qIIBavxTyPthZcbCsk-9">
          <mxGeometry relative="1" as="geometry" />
        </mxCell>
        <mxCell id="f0qIIBavxTyPthZcbCsk-8" value="Nutritional Comparison" style="ellipse;whiteSpace=wrap;html=1;" vertex="1" parent="1">
          <mxGeometry x="510" y="470" width="120" height="80" as="geometry" />
        </mxCell>
        <mxCell id="f0qIIBavxTyPthZcbCsk-9" value="Data Visualisation" style="ellipse;whiteSpace=wrap;html=1;" vertex="1" parent="1">
          <mxGeometry x="630" y="360" width="120" height="80" as="geometry" />
        </mxCell>
        <mxCell id="f0qIIBavxTyPthZcbCsk-10" value="" style="endArrow=classic;html=1;rounded=0;entryX=0;entryY=0.5;entryDx=0;entryDy=0;" edge="1" parent="1" source="f0qIIBavxTyPthZcbCsk-1" target="f0qIIBavxTyPthZcbCsk-3">
          <mxGeometry width="50" height="50" relative="1" as="geometry">
            <mxPoint x="400" y="390" as="sourcePoint" />
            <mxPoint x="450" y="340" as="targetPoint" />
          </mxGeometry>
        </mxCell>
        <mxCell id="f0qIIBavxTyPthZcbCsk-20" value="&amp;lt;&amp;lt;Extends&amp;gt;&amp;gt;" style="text;html=1;align=center;verticalAlign=middle;resizable=0;points=[];autosize=1;strokeColor=none;fillColor=none;rotation=50;" vertex="1" parent="1">
          <mxGeometry x="630" y="300" width="100" height="30" as="geometry" />
        </mxCell>
        <mxCell id="f0qIIBavxTyPthZcbCsk-21" value="&amp;lt;&amp;lt;Extends&amp;gt;&amp;gt;" style="text;html=1;align=center;verticalAlign=middle;resizable=0;points=[];autosize=1;strokeColor=none;fillColor=none;rotation=-49;" vertex="1" parent="1">
          <mxGeometry x="630" y="470" width="100" height="30" as="geometry" />
        </mxCell>
        <mxCell id="f0qIIBavxTyPthZcbCsk-22" value="&amp;lt;&amp;lt;Extends&amp;gt;&amp;gt;" style="text;html=1;align=center;verticalAlign=middle;resizable=0;points=[];autosize=1;strokeColor=none;fillColor=none;rotation=-50;" vertex="1" parent="1">
          <mxGeometry x="110" y="300" width="100" height="30" as="geometry" />
        </mxCell>
        <mxCell id="f0qIIBavxTyPthZcbCsk-23" value="&amp;lt;&amp;lt;Extends&amp;gt;&amp;gt;" style="text;html=1;align=center;verticalAlign=middle;resizable=0;points=[];autosize=1;strokeColor=none;fillColor=none;rotation=50;" vertex="1" parent="1">
          <mxGeometry x="110" y="480" width="100" height="30" as="geometry" />
        </mxCell>
        <mxCell id="f0qIIBavxTyPthZcbCsk-24" value="&lt;div&gt;&amp;lt;&amp;lt;Includes&amp;gt;&amp;gt;&lt;/div&gt;" style="text;html=1;align=center;verticalAlign=middle;resizable=0;points=[];autosize=1;strokeColor=none;fillColor=none;" vertex="1" parent="1">
          <mxGeometry x="220" y="365" width="100" height="30" as="geometry" />
        </mxCell>
        <mxCell id="f0qIIBavxTyPthZcbCsk-25" value="&lt;div&gt;&amp;lt;&amp;lt;Includes&amp;gt;&amp;gt;&lt;/div&gt;" style="text;html=1;align=center;verticalAlign=middle;resizable=0;points=[];autosize=1;strokeColor=none;fillColor=none;rotation=-50;" vertex="1" parent="1">
          <mxGeometry x="320" y="470" width="100" height="30" as="geometry" />
        </mxCell>
        <mxCell id="f0qIIBavxTyPthZcbCsk-26" value="&lt;div&gt;&amp;lt;&amp;lt;Includes&amp;gt;&amp;gt;&lt;/div&gt;" style="text;html=1;align=center;verticalAlign=middle;resizable=0;points=[];autosize=1;strokeColor=none;fillColor=none;rotation=49;" vertex="1" parent="1">
          <mxGeometry x="330" y="300" width="100" height="30" as="geometry" />
        </mxCell>
        <mxCell id="f0qIIBavxTyPthZcbCsk-27" value="&lt;div&gt;&amp;lt;&amp;lt;Includes&amp;gt;&amp;gt;&lt;/div&gt;" style="text;html=1;align=center;verticalAlign=middle;resizable=0;points=[];autosize=1;strokeColor=none;fillColor=none;rotation=-60;" vertex="1" parent="1">
          <mxGeometry x="420" y="310" width="100" height="30" as="geometry" />
        </mxCell>
        <mxCell id="f0qIIBavxTyPthZcbCsk-28" value="&lt;div&gt;&amp;lt;&amp;lt;Includes&amp;gt;&amp;gt;&lt;/div&gt;" style="text;html=1;align=center;verticalAlign=middle;resizable=0;points=[];autosize=1;strokeColor=none;fillColor=none;rotation=60;" vertex="1" parent="1">
          <mxGeometry x="420" y="460" width="100" height="30" as="geometry" />
        </mxCell>
        <mxCell id="f0qIIBavxTyPthZcbCsk-29" value="" style="rounded=0;whiteSpace=wrap;html=1;" vertex="1" parent="1">
          <mxGeometry x="70" y="20" width="140" height="70" as="geometry" />
        </mxCell>
      </root>
    </mxGraphModel>
  </diagram>
</mxfile>
